<?xml version="1.0" encoding="UTF-8"?>
<svg id="Layer_2" data-name="Layer 2" xmlns="http://www.w3.org/2000/svg" viewBox="0 0 393.37 170.71">
  <defs>
    <style>
      .cls-1 {
        fill: #394598;
      }

      .cls-2 {
        fill: #e3e7f5;
      }
    </style>
  </defs>
  <g id="Layer_1-2" data-name="Layer 1">
    <g>
      <circle class="cls-2" cx="35.89" cy="12.72" r="9.29"/>
      <path class="cls-2" d="m59.97,42.63l10.94.54h-12.97s-10.19-9.48-16.08-9.57S14.23,25.44,4.61,53.87s12.56,56.09,12.56,56.09c0,0,11.63,24.89,10.7,32.87s10.17,32.19,23.74,21.83,16.91-26.79,16.91-26.79c0,0,12.63,28.25,18.05,28.21s8.87,6.32,14.35-1.42,6.87-15.28,11.74-30.44c0,0-41.74-20.09-52.68-91.59Z"/>
      <path class="cls-2" d="m67,4.69s-4.83,16.18,14.48,18.92c0,0-6.52,15.52-19.43,7.89s-4.04-28.12,4.96-26.81Z"/>
      <g>
        <path class="cls-1" d="m92.63,170.71c-11.12,0-18.47-16.04-22.12-24.02-.18-.4-.35-.77-.52-1.12-.42-.92-.85-1.86-1.27-2.82-.42.97-.85,1.9-1.27,2.82-.16.35-.33.73-.52,1.13-3.65,7.98-11,24.02-22.12,24.02-.77,0-1.55-.08-2.36-.24-12.2-2.44-15.53-18.44-17.96-30.13-.52-2.48-1-4.83-1.51-6.64-2.4-8.64-6.29-17.25-10.04-25.58C7.46,95.99,1.79,83.44.28,70.06c-1.22-10.82,1.52-20.82,7.5-27.45,7.21-7.98,18.38-12.26,29.88-11.46,8.77.61,16.55,4.21,21.98,10.03,3.15-.57,6.22-.85,9.03-.95l.04,1.15.04-1.15c2.81.1,5.88.38,9.03.95,5.43-5.82,13.21-9.41,21.98-10.03,11.49-.8,22.66,3.48,29.88,11.46,5.99,6.62,8.72,16.63,7.5,27.45-1.51,13.38-7.17,25.94-12.65,38.07-3.76,8.33-7.64,16.94-10.04,25.58-.5,1.81-.99,4.16-1.51,6.64-2.43,11.68-5.75,27.68-17.96,30.13-.8.16-1.59.24-2.36.24Zm-23.95-36.11h.08c.94,0,1.78.57,2.14,1.44h0c1.12,2.76,2.2,5.25,3.28,7.59.16.36.34.74.52,1.14,3.15,6.87,10.51,22.95,19.38,21.18,9.21-1.84,12.18-16.12,14.34-26.54.53-2.56,1.04-4.98,1.58-6.94,2.49-8.98,6.45-17.76,10.28-26.24,5.33-11.81,10.85-24.03,12.27-36.69,1.07-9.5-1.24-18.19-6.34-23.83-6.18-6.83-16.18-10.64-26.13-9.95-6.57.46-12.48,2.83-16.96,6.68,7.03,2.07,13.91,5.89,18.63,12.71,3.83,5.54,5.83,10.79,5.93,15.59.09,4.41-2.23,8.09-6.23,9.84-8.9,3.89-19.36-4.25-24.14-9.67-6.51-7.38-7.6-17.78-2.76-25.56-2.03-.27-4-.42-5.84-.49-1.85.07-3.82.22-5.84.49,4.84,7.78,3.75,18.18-2.76,25.56-3.91,4.43-11.63,10.69-19.18,10.69-1.68,0-3.35-.31-4.97-1.02-3.99-1.75-6.32-5.42-6.23-9.84.1-4.8,2.1-10.05,5.93-15.59,4.72-6.82,11.6-10.64,18.63-12.71-4.48-3.85-10.39-6.22-16.96-6.68-9.94-.69-19.95,3.11-26.13,9.95-5.1,5.64-7.41,14.33-6.34,23.83,1.43,12.66,6.94,24.88,12.27,36.69,3.83,8.48,7.79,17.26,10.28,26.24.54,1.96,1.05,4.38,1.58,6.94,2.17,10.42,5.13,24.7,14.35,26.54,8.86,1.77,16.23-14.31,19.38-21.18.18-.4.36-.78.52-1.14,1.09-2.35,2.16-4.83,3.28-7.59h0c.35-.87,1.2-1.44,2.14-1.44Zm-10.78-88.34c-6.95,1.65-13.92,5-18.42,11.51-3.31,4.79-5.03,9.18-5.11,13.06-.05,2.52,1.21,4.52,3.46,5.51,6.47,2.83,15.15-4.32,18.83-8.49,5.3-6,6.12-14.46,1.99-20.56-.24-.35-.49-.7-.74-1.03Zm21.64,0c-.26.34-.5.68-.74,1.03-4.13,6.1-3.31,14.55,1.99,20.56,3.68,4.18,12.36,11.32,18.83,8.49,2.25-.98,3.51-2.99,3.46-5.51-.08-3.88-1.8-8.28-5.11-13.06-4.5-6.51-11.47-9.86-18.42-11.51Z"/>
        <path class="cls-1" d="m68.67,34.12c-8.47,0-15.35-7.65-15.35-17.06S60.21,0,68.67,0s15.35,7.65,15.35,17.06-6.89,17.06-15.35,17.06Zm0-29.5c-5.92,0-10.74,5.58-10.74,12.44s4.82,12.44,10.74,12.44,10.74-5.58,10.74-12.44-4.82-12.44-10.74-12.44Z"/>
        <path class="cls-1" d="m35.89,26.36c-6.31,0-11.45-5.67-11.45-12.64S29.58,1.08,35.89,1.08s11.45,5.67,11.45,12.64-5.14,12.64-11.45,12.64Zm0-20.67c-3.77,0-6.83,3.6-6.83,8.03s3.06,8.03,6.83,8.03,6.83-3.6,6.83-8.03-3.06-8.03-6.83-8.03Z"/>
        <path class="cls-1" d="m103.69,26.36c-6.31,0-11.45-5.67-11.45-12.64s5.14-12.64,11.45-12.64,11.45,5.67,11.45,12.64-5.14,12.64-11.45,12.64Zm0-20.67c-3.77,0-6.83,3.6-6.83,8.03s3.06,8.03,6.83,8.03,6.83-3.6,6.83-8.03-3.07-8.03-6.83-8.03Z"/>
      </g>
      <g>
        <path class="cls-1" d="m199.76,72.26c0,13.14-7.92,24.13-23.83,24.13s-23.18-10.92-23.18-24.07,8.28-24.12,23.88-24.12c14.64,0,23.13,10.16,23.13,24.05Zm-32.97-.14c0,8.53,2.83,14.46,9.57,14.46,7.08,0,9.41-6.3,9.41-14.21,0-8.48-2.48-14.36-9.59-14.36-6.61,0-9.39,5.46-9.39,14.11Z"/>
        <path class="cls-1" d="m220.47,77.98v17.55h-13.22v-46.46h23.02c10.94,0,16.24,5.86,16.24,12.86,0,6.42-3.75,9.7-6.97,11.02,2.93,1.02,6.06,4.12,6.06,11.99v1.93c0,2.89.09,6.64.6,8.65h-12.97c-.79-2-.99-5.37-.99-10.14v-1.2c0-4.01-.96-6.21-6.96-6.21h-4.8Zm0-9.49h6.3c4.54,0,6.19-1.88,6.19-5.01s-1.96-4.92-6.12-4.92h-6.36v9.93Z"/>
        <path class="cls-1" d="m266.54,86.5l-2.69,9.04h-13.26l14.68-46.46h17.62l15.26,46.46h-14.22l-2.82-9.04h-14.58Zm12.19-10.09c-2.18-7.3-3.97-13.79-5.02-18.32h-.19c-1.08,5.01-2.85,11.64-4.74,18.32h9.94Z"/>
        <path class="cls-1" d="m303.03,49.07h13.65v36.37h21.9l-1.47,10.09h-34.08v-46.46Z"/>
        <path class="cls-1" d="m165.04,141.46c.77,4.05,3.61,5.75,8.01,5.75,4.12,0,6.02-1.44,6.02-4.14,0-3.05-2.06-4.21-9.4-5.96-13.71-3.32-16.44-8.32-16.44-14.58,0-7.8,5.73-14.33,18.66-14.33s18.93,6.82,19.59,14.15h-13.15c-.36-2.49-1.64-5.03-6.47-5.03-3.12,0-5.03,1.18-5.03,3.69s1.7,3.5,8.87,5.25c14.32,3.57,17.16,8.73,17.16,15.34,0,8.73-6.73,14.79-20.37,14.79-12.85,0-19.66-6-20.68-14.93h13.25Z"/>
        <path class="cls-1" d="m244.75,132.26c0,13.14-7.92,24.13-23.83,24.13s-23.18-10.92-23.18-24.07,8.28-24.12,23.88-24.12c14.64,0,23.13,10.16,23.13,24.05Zm-32.97-.14c0,8.53,2.83,14.46,9.57,14.46,7.08,0,9.41-6.3,9.41-14.21,0-8.48-2.48-14.36-9.59-14.36-6.61,0-9.39,5.46-9.39,14.11Zm23.56,15.97l12.47,8.41-7.01,8.17-16.29-11.12,10.83-5.46Z"/>
        <path class="cls-1" d="m265.47,109.07v28.56c0,6.66,3.28,8.93,7.41,8.93,4.47,0,7.06-2.72,7.06-8.93v-28.56h13.68v27.19c0,15.44-9.13,20.13-20.97,20.13s-20.8-4.97-20.8-20.07v-27.26h13.63Z"/>
        <path class="cls-1" d="m313.56,146.5l-2.69,9.04h-13.26l14.68-46.46h17.62l15.26,46.46h-14.22l-2.82-9.04h-14.58Zm12.19-10.09c-2.18-7.3-3.97-13.79-5.02-18.32h-.19c-1.08,5.01-2.85,11.64-4.74,18.32h9.94Z"/>
        <path class="cls-1" d="m350.05,109.07h19.96c14.79,0,23.36,9.35,23.36,22.72s-8.35,23.74-23.58,23.74h-19.75v-46.46Zm13.63,36.6h5.21c7.39,0,10.42-5.18,10.42-13.88,0-7.69-2.82-12.86-10.25-12.86h-5.38v26.74Z"/>
      </g>
      <path class="cls-1" d="m103.76,41.87s24.85-.38,22.62,28.43c0,0-2.08-23.62-22.62-28.43Z"/>
      <path class="cls-1" d="m35.9,146.09s1.73,18,11.9,12.33c0,0-9.13-.39-11.9-12.33Z"/>
    </g>
  </g>
</svg>